<svg width="54" height="12" viewBox="0 0 54 12" fill="none" xmlns="http://www.w3.org/2000/svg">
<path d="M0.923269 0.263748L8.20718 0.263749L8.20718 1.61973L5.33922 1.61973L5.33921 9.26364L3.76723 9.26364L3.76723 1.61973L0.91127 1.61973L0.923269 0.263748ZM7.89518 2.74772L9.23917 2.74772L9.23917 4.0077L9.26317 4.0077C9.31117 3.8277 9.39517 3.65971 9.51516 3.49171C9.63516 3.32371 9.77916 3.16771 9.95916 3.03571C10.1272 2.89171 10.3192 2.78372 10.5351 2.69972C10.7391 2.61572 10.9551 2.56772 11.1711 2.56772C11.3391 2.56772 11.4591 2.57972 11.5191 2.57972C11.5791 2.59172 11.6511 2.60372 11.7111 2.60372L11.7111 3.9837C11.6151 3.9597 11.5071 3.9477 11.3991 3.9357C11.2911 3.9237 11.1951 3.9117 11.0871 3.9117C10.8471 3.9117 10.6192 3.9597 10.4032 4.0557C10.1872 4.1517 10.0072 4.2957 9.83916 4.47569C9.68316 4.66769 9.55116 4.89569 9.45516 5.17169C9.35917 5.44768 9.31117 5.77168 9.31117 6.13168L9.31117 9.22764L7.87118 9.22764L7.89518 2.74772ZM18.3111 9.26364L16.8951 9.26364L16.8951 8.35165L16.8711 8.35165C16.6911 8.68764 16.4271 8.93964 16.0791 9.14364C15.7311 9.34764 15.3711 9.44364 15.0111 9.44364C14.1591 9.44364 13.5351 9.23964 13.1511 8.80764C12.7671 8.38765 12.5751 7.73965 12.5751 6.88767L12.5751 2.74772L14.0151 2.74772L14.0151 6.74367C14.0151 7.31966 14.1231 7.72765 14.3511 7.95565C14.5671 8.19565 14.8791 8.31565 15.2751 8.31565C15.5751 8.31565 15.8271 8.26765 16.0311 8.17165C16.2351 8.07565 16.4031 7.95565 16.5231 7.79965C16.6551 7.64366 16.7391 7.45166 16.7991 7.23566C16.8591 7.01966 16.8831 6.77967 16.8831 6.52767L16.8831 2.74772L18.3231 2.74772L18.3231 9.26364L18.3111 9.26364ZM20.759 7.17566C20.807 7.59566 20.963 7.88366 21.239 8.06365C21.515 8.23165 21.851 8.31565 22.235 8.31565C22.367 8.31565 22.523 8.30365 22.691 8.27965C22.859 8.25565 23.027 8.21965 23.171 8.15965C23.327 8.09965 23.447 8.01565 23.543 7.89565C23.639 7.77565 23.687 7.63166 23.675 7.45166C23.663 7.27166 23.603 7.11566 23.471 6.99566C23.339 6.87567 23.183 6.79167 22.991 6.70767C22.799 6.63567 22.571 6.57567 22.319 6.52767C22.067 6.47967 21.815 6.41967 21.551 6.35967C21.287 6.29967 21.023 6.22768 20.771 6.14368C20.519 6.05968 20.303 5.95168 20.099 5.79568C19.907 5.65168 19.739 5.47169 19.631 5.24369C19.511 5.01569 19.451 4.75169 19.451 4.4157C19.451 4.0557 19.535 3.7677 19.715 3.52771C19.883 3.28771 20.111 3.09571 20.375 2.95172C20.639 2.80772 20.939 2.69972 21.263 2.63972C21.587 2.57972 21.899 2.55572 22.187 2.55572C22.523 2.55572 22.847 2.59172 23.147 2.66372C23.447 2.73572 23.735 2.84372 23.975 3.01172C24.227 3.16771 24.431 3.38371 24.587 3.63571C24.755 3.8877 24.851 4.1997 24.899 4.5597L23.399 4.5597C23.327 4.2117 23.171 3.9837 22.931 3.86371C22.679 3.74371 22.403 3.68371 22.079 3.68371C21.983 3.68371 21.851 3.69571 21.719 3.70771C21.575 3.7317 21.455 3.75571 21.323 3.80371C21.203 3.85171 21.095 3.9237 21.011 4.0077C20.927 4.0917 20.879 4.2117 20.879 4.3557C20.879 4.53569 20.939 4.66769 21.059 4.77569C21.179 4.88369 21.335 4.96769 21.539 5.05169C21.731 5.12369 21.959 5.18369 22.211 5.23169C22.463 5.27969 22.727 5.33969 22.991 5.39969C23.255 5.45968 23.507 5.53168 23.759 5.61568C24.011 5.69968 24.239 5.80768 24.431 5.96368C24.623 6.10768 24.791 6.28768 24.911 6.50367C25.031 6.71967 25.091 6.99566 25.091 7.30766C25.091 7.69166 25.007 8.01565 24.827 8.29165C24.647 8.55565 24.419 8.78364 24.143 8.95164C23.867 9.11964 23.543 9.23964 23.207 9.32364C22.859 9.39564 22.523 9.44364 22.187 9.44364C21.779 9.44364 21.395 9.39564 21.047 9.29964C20.699 9.20364 20.387 9.05964 20.135 8.87964C19.883 8.68764 19.679 8.45965 19.535 8.17165C19.391 7.89565 19.307 7.55966 19.295 7.16366L20.747 7.16366L20.747 7.17566L20.759 7.17566ZM25.499 2.74772L26.591 2.74772L26.591 0.779743L28.0309 0.779743L28.0309 2.73572L29.3269 2.73572L29.3269 3.80371L28.0309 3.80371L28.0309 7.28366C28.0309 7.43966 28.0429 7.55966 28.0549 7.67966C28.0669 7.78766 28.1029 7.88365 28.1389 7.95565C28.1869 8.02765 28.2589 8.08765 28.3429 8.12365C28.4389 8.15965 28.5589 8.18365 28.7269 8.18365C28.8229 8.18365 28.9309 8.18365 29.0269 8.17165C29.1229 8.15965 29.2309 8.14765 29.3269 8.12365L29.3269 9.23964C29.1709 9.26364 29.0149 9.27564 28.8589 9.28764C28.7029 9.31164 28.5589 9.31164 28.3909 9.31164C28.0069 9.31164 27.7069 9.27564 27.4789 9.20364C27.2509 9.13164 27.0709 9.02364 26.9389 8.89164C26.807 8.74764 26.723 8.57964 26.675 8.37565C26.627 8.17165 26.603 7.91965 26.591 7.65566L26.591 3.8157L25.499 3.8157L25.499 2.72372L25.499 2.74772ZM30.3349 2.74772L31.6909 2.74772L31.6909 3.63571L31.7149 3.63571C31.9189 3.25171 32.1949 2.98772 32.5549 2.81972C32.9149 2.65172 33.2989 2.56772 33.7309 2.56772C34.2469 2.56772 34.6909 2.65172 35.0748 2.84372C35.4588 3.02372 35.7708 3.26371 36.0228 3.58771C36.2748 3.8997 36.4668 4.2717 36.5868 4.6917C36.7068 5.11169 36.7788 5.56768 36.7788 6.03568C36.7788 6.47967 36.7188 6.89967 36.6108 7.30766C36.4908 7.71566 36.3228 8.08765 36.0948 8.39965C35.8668 8.71165 35.5788 8.96364 35.2188 9.15564C34.8589 9.34764 34.4509 9.44364 33.9709 9.44364C33.7669 9.44364 33.5509 9.41964 33.3469 9.38364C33.1429 9.34764 32.9389 9.28764 32.7469 9.20364C32.5549 9.11964 32.3749 9.01164 32.2189 8.87964C32.0509 8.74764 31.9189 8.59165 31.8109 8.42365L31.7869 8.42365L31.7869 11.6756L30.3469 11.6756L30.3469 2.74772L30.3349 2.74772ZM35.3628 6.01168C35.3628 5.72368 35.3268 5.43569 35.2428 5.15969C35.1709 4.88369 35.0508 4.64369 34.8949 4.4277C34.7389 4.2117 34.5469 4.0437 34.3309 3.91171C34.1029 3.77971 33.8389 3.71971 33.5509 3.71971C32.9509 3.71971 32.4949 3.92371 32.1829 4.3437C31.8829 4.7637 31.7269 5.32769 31.7269 6.02368C31.7269 6.35968 31.7629 6.65967 31.8469 6.93567C31.9309 7.21166 32.0389 7.45166 32.2069 7.65566C32.3629 7.85965 32.5549 8.01565 32.7829 8.13565C33.0109 8.25565 33.2629 8.31565 33.5629 8.31565C33.8989 8.31565 34.1629 8.24365 34.3909 8.11165C34.6189 7.97965 34.7989 7.79965 34.9549 7.59566C35.0988 7.37966 35.2068 7.13967 35.2668 6.86367C35.3268 6.57567 35.3628 6.29968 35.3628 6.01168ZM37.8948 0.263751L39.3348 0.263752L39.3348 1.61973L37.8948 1.61973L37.8948 0.263751ZM37.8948 2.74772L39.3348 2.74772L39.3348 9.26364L37.8948 9.26364L37.8948 2.74772ZM40.6188 0.263752L42.0588 0.263752L42.0588 9.26364L40.6188 9.26364L40.6188 0.263752ZM46.4507 9.44364C45.9347 9.44364 45.4667 9.35964 45.0587 9.17964C44.6507 8.99964 44.3147 8.77165 44.0267 8.47165C43.7507 8.17165 43.5347 7.79966 43.3907 7.37966C43.2467 6.95967 43.1628 6.49167 43.1628 5.99968C43.1628 5.50769 43.2347 5.05169 43.3907 4.6317C43.5347 4.2117 43.7507 3.85171 44.0267 3.53971C44.3027 3.23971 44.6507 2.99972 45.0587 2.83172C45.4667 2.66372 45.9347 2.56772 46.4507 2.56772C46.9667 2.56772 47.4347 2.65172 47.8427 2.83172C48.2507 2.99972 48.5867 3.23971 48.8747 3.53971C49.1507 3.83971 49.3667 4.2117 49.5107 4.6317C49.6547 5.05169 49.7387 5.50769 49.7387 5.99968C49.7387 6.50367 49.6667 6.95967 49.5107 7.37966C49.3547 7.79966 49.1507 8.15965 48.8747 8.47165C48.5987 8.77165 48.2507 9.01164 47.8427 9.17964C47.4347 9.34764 46.9787 9.44364 46.4507 9.44364ZM46.4507 8.30365C46.7627 8.30365 47.0507 8.23165 47.2787 8.09965C47.5187 7.96766 47.6987 7.78766 47.8547 7.57166C48.0107 7.35566 48.1187 7.10367 48.1907 6.83967C48.2627 6.56367 48.2987 6.28768 48.2987 5.99968C48.2987 5.72368 48.2627 5.44769 48.1907 5.17169C48.1187 4.89569 48.0107 4.6557 47.8547 4.4397C47.6987 4.2237 47.5067 4.05571 47.2787 3.92371C47.0387 3.79171 46.7627 3.71971 46.4507 3.71971C46.1387 3.71971 45.8507 3.79171 45.6227 3.92371C45.3827 4.05571 45.2027 4.2357 45.0467 4.4397C44.8907 4.6557 44.7827 4.89569 44.7107 5.17169C44.6387 5.44769 44.6027 5.72368 44.6027 5.99968C44.6027 6.28768 44.6387 6.56367 44.7107 6.83967C44.7827 7.11567 44.8907 7.35566 45.0467 7.57166C45.2027 7.78766 45.3947 7.96766 45.6227 8.09965C45.8627 8.24365 46.1387 8.30365 46.4507 8.30365ZM50.1707 2.74772L51.2627 2.74772L51.2627 0.779745L52.7026 0.779745L52.7026 2.73572L53.9986 2.73572L53.9986 3.80371L52.7026 3.80371L52.7026 7.28367C52.7026 7.43966 52.7146 7.55966 52.7266 7.67966C52.7386 7.78766 52.7746 7.88366 52.8106 7.95565C52.8586 8.02765 52.9306 8.08766 53.0146 8.12366C53.1106 8.15965 53.2306 8.18365 53.3986 8.18365C53.4946 8.18365 53.6026 8.18365 53.6986 8.17165C53.7946 8.15965 53.9026 8.14766 53.9986 8.12366L53.9986 9.23964C53.8426 9.26364 53.6866 9.27564 53.5306 9.28764C53.3746 9.31164 53.2306 9.31164 53.0626 9.31164C52.6786 9.31164 52.3786 9.27564 52.1506 9.20364C51.9226 9.13164 51.7426 9.02364 51.6106 8.89165C51.4786 8.74765 51.3947 8.57965 51.3467 8.37565C51.2987 8.17165 51.2747 7.91965 51.2627 7.65566L51.2627 3.81571L50.1707 3.81571L50.1707 2.72372L50.1707 2.74772Z" fill="black"/>
</svg>
